<svg xmlns="http://www.w3.org/2000/svg" width="100" height="80" viewBox="0 0 100 80">
  <path id="Shape" d="M54.994,80V65.9l4.012-.8c6.9-1.38,11.681-4.115,14.219-8.12A14.446,14.446,0,0,0,75.369,50H59.99a5,5,0,0,1-5-5V10A10.006,10.006,0,0,1,64.986,0H94.964a5,5,0,0,1,5,5V45c.03.15.979,13.3-8.448,23.54C84.5,76.145,73.895,80,59.99,80ZM0,80V65.9l4.012-.8c6.9-1.38,11.681-4.115,14.219-8.12A14.466,14.466,0,0,0,20.375,50H5a5,5,0,0,1-5-5V10A10.006,10.006,0,0,1,9.993,0H39.97a5,5,0,0,1,5,5V45c.03.15.984,13.3-8.449,23.54C29.508,76.145,18.9,80,5,80Z" fill="#f9e5da"/>
</svg>
