<svg id="social" xmlns="http://www.w3.org/2000/svg" width="160" height="48" viewBox="0 0 160 48">
  <circle id="Oval" cx="24" cy="24" r="24" transform="translate(112)" fill="#ef6d58"/>
  <path id="Shape" d="M12.675,15V9.522c0-3.294-4.019-3.046-4.019,0V15H5.342V4.565H8.654V5.971C10.052,3.441,16,3.253,16,8.392V15ZM0,15V4.565H3.334V15ZM.014,1.631A1.642,1.642,0,0,1,1.667,0,1.642,1.642,0,0,1,3.32,1.631a1.642,1.642,0,0,1-1.653,1.63A1.642,1.642,0,0,1,.014,1.631Z" transform="translate(128 16)" fill="#fff"/>
  <circle id="Oval-2" data-name="Oval" cx="24" cy="24" r="24" transform="translate(56)" fill="#ef6d58"/>
  <path id="twitter" d="M16,1.54a6.57,6.57,0,0,1-1.885.517A3.3,3.3,0,0,0,15.559.241a6.568,6.568,0,0,1-2.085.8A3.284,3.284,0,0,0,7.88,4.031,9.323,9.323,0,0,1,1.115.6,3.287,3.287,0,0,0,2.131,4.984,3.277,3.277,0,0,1,.645,4.573a3.287,3.287,0,0,0,2.633,3.26A3.29,3.29,0,0,1,1.8,7.889a3.287,3.287,0,0,0,3.067,2.279A6.606,6.606,0,0,1,0,11.529,9.284,9.284,0,0,0,5.031,13a9.284,9.284,0,0,0,9.331-9.765A6.618,6.618,0,0,0,16,1.54Z" transform="translate(72 18)" fill="#fff"/>
  <circle id="Oval-3" data-name="Oval" cx="24" cy="24" r="24" fill="#ef6d58"/>
  <path id="facebook" d="M2.667,5.333H0V8H2.667v8h4V8H9.093l.24-2.667H6.667V4.223c0-.637.128-.889.744-.889H9.333V0H6.128c-2.4,0-3.461,1.056-3.461,3.077Z" transform="translate(19 16)" fill="#fff"/>
</svg>
