<svg xmlns="http://www.w3.org/2000/svg" width="146.921" height="145.85" viewBox="0 0 146.921 145.85">
  <g id="Group_3" data-name="Group 3" transform="translate(-119.54 -4741)">
    <path id="Star" d="M74,111,56.291,145.85l.515-39.088L24.929,129.39,43.55,95.018,4.809,100.241,37.27,78.46.54,65.08,39.4,60.88,13.1,31.963,49.464,46.305,39.61,8.476l25.535,29.6L74,0l8.855,38.075,25.535-29.6L98.536,46.305,134.9,31.963,108.6,60.88l38.865,4.2L110.73,78.46l32.461,21.781L104.45,95.018l18.621,34.371L91.195,106.762l.515,39.088Z" transform="translate(119 4741)" fill="#ef6d58"/>
    <path id="Shape" d="M18,32V14H30V29a3,3,0,0,1-3,3ZM5,32a3,3,0,0,1-3-3V14H14V32ZM2,12a2,2,0,0,1-2-2V8A2,2,0,0,1,2,6H6.076A5.859,5.859,0,0,1,6,5.012V5A5,5,0,1,1,16,5,5,5,0,1,1,26,5v.012A5.9,5.9,0,0,1,25.924,6H30a2,2,0,0,1,2,2v2a2,2,0,0,1-2,2Z" transform="translate(177 4799)" fill="#fff"/>
  </g>
</svg>
