<svg xmlns="http://www.w3.org/2000/svg" width="80" height="80" viewBox="0 0 80 80">
  <g id="Group_8" data-name="Group 8" transform="translate(-768 -1264)">
    <circle id="Oval" cx="40" cy="40" r="40" transform="translate(768 1264)" fill="#ef6c57"/>
    <path id="Combined_Shape" data-name="Combined Shape" d="M3,26a3,3,0,0,1-3-3V11.7l15.742,4.194a1,1,0,0,0,.516,0L32,11.7V23a3,3,0,0,1-3,3ZM15.228,13.828,0,9.768V7A3,3,0,0,1,3,4h7V3a3,3,0,0,1,3-3h6a3,3,0,0,1,3,3V4h7a3,3,0,0,1,3,3V9.768l-15.228,4.06a2.982,2.982,0,0,1-1.544,0ZM12,3V4h8V3a1,1,0,0,0-1-1H13A1,1,0,0,0,12,3Z" transform="translate(792 1290)" fill="#fff"/>
  </g>
</svg>
