<svg xmlns="http://www.w3.org/2000/svg" width="48" height="48" viewBox="0 0 48 48">
  <g id="Group_9" data-name="Group 9" transform="translate(-753 -9004)">
    <circle id="Oval" cx="24" cy="24" r="24" transform="translate(753 9004)" fill="#ef6d58"/>
    <path id="Shape" d="M.18,14.732A11.234,11.234,0,0,1,8.492,1.913,1.471,1.471,0,0,1,8.742.6,1.547,1.547,0,0,1,9.968,0h3.066A1.547,1.547,0,0,1,14.26.6a1.471,1.471,0,0,1,.249,1.316A11.288,11.288,0,0,1,23,12.762,11.345,11.345,0,0,1,12.513,23.956c-.342.03-.684.044-1.021.044A11.431,11.431,0,0,1,.18,14.732Z" transform="translate(766 9016)" fill="#fff"/>
  </g>
</svg>
