<svg xmlns="http://www.w3.org/2000/svg" width="48" height="48" viewBox="0 0 48 48">
  <g id="Group_9" data-name="Group 9" transform="translate(-754 -9088)">
    <circle id="Oval" cx="24" cy="24" r="24" transform="translate(754 9088)" fill="#ef6d58"/>
    <path id="Path" d="M2.828.765a2.617,2.617,0,0,1,3.915.245L9.435,4.469A2.617,2.617,0,0,1,9.908,6.71L9.087,10a1.017,1.017,0,0,0,.267.965l3.685,3.686a1.017,1.017,0,0,0,.966.267l3.283-.821a2.617,2.617,0,0,1,2.241.473l3.459,2.691a2.617,2.617,0,0,1,.244,3.917l-1.551,1.551a4.165,4.165,0,0,1-4.315,1.053,27.95,27.95,0,0,1-10.515-6.63A27.953,27.953,0,0,1,.223,6.632,4.17,4.17,0,0,1,1.277,2.316Z" transform="translate(766 9100)" fill="#fff"/>
  </g>
</svg>
