<svg xmlns="http://www.w3.org/2000/svg" width="48" height="48" viewBox="0 0 48 48">
  <g id="Group_10" data-name="Group 10" transform="translate(-835 -9156)">
    <circle id="Oval" cx="24" cy="24" r="24" transform="translate(835 9156)" fill="#ef6d58"/>
    <path id="Shape" d="M3,18A3,3,0,0,1,.286,16.285l9.855-6.041h0L12,11.379l1.858-1.135,9.855,6.04A3,3,0,0,1,21,18ZM15.3,9.366v0L24,4.046V14.7ZM0,4.046,8.7,9.365,0,14.7ZM.075,2.333A3,3,0,0,1,3,0H21a3,3,0,0,1,2.925,2.333L12,9.621Z" transform="translate(847 9171)" fill="#fff"/>
  </g>
</svg>
