<svg xmlns="http://www.w3.org/2000/svg" width="150.825" height="21.708" viewBox="0 0 150.825 21.708">
  <g id="star" transform="translate(-0.587)">
    <path id="Star-2" data-name="Star" d="M12,18,4.947,21.708l1.347-7.854L.587,8.292,8.473,7.146,12,0l3.527,7.146,7.886,1.146-5.706,5.562,1.347,7.854Z" fill="#f6d021"/>
    <path id="Star-3" data-name="Star" d="M12,18,4.947,21.708l1.347-7.854L.587,8.292,8.473,7.146,12,0l3.527,7.146,7.886,1.146-5.706,5.562,1.347,7.854Z" transform="translate(32)" fill="#f6d021"/>
    <path id="Star-4" data-name="Star" d="M12,18,4.947,21.708l1.347-7.854L.587,8.292,8.473,7.146,12,0l3.527,7.146,7.886,1.146-5.706,5.562,1.347,7.854Z" transform="translate(64)" fill="#f6d021"/>
    <path id="Star-5" data-name="Star" d="M12,18,4.947,21.708l1.347-7.854L.587,8.292,8.473,7.146,12,0l3.527,7.146,7.886,1.146-5.706,5.562,1.347,7.854Z" transform="translate(96)" fill="#f6d021"/>
    <path id="Star-6" data-name="Star" d="M12,18,4.947,21.708l1.347-7.854L.587,8.292,8.473,7.146,12,0l3.527,7.146,7.886,1.146-5.706,5.562,1.347,7.854Z" transform="translate(128)" fill="#f6d021"/>
  </g>
</svg>
